<?xml version="1.0" standalone="no"?>
<!DOCTYPE svg PUBLIC "-//W3C//DTD SVG 20010904//EN"
 "http://www.w3.org/TR/2001/REC-SVG-20010904/DTD/svg10.dtd">
<svg version="1.0" xmlns="http://www.w3.org/2000/svg"
 width="388.000000pt" height="257.000000pt" viewBox="0 0 388.000000 257.000000"
 preserveAspectRatio="xMidYMid meet">

<g transform="translate(0.000000,257.000000) scale(0.100000,-0.100000)"
fill="#000000" stroke="none">
<path d="M2720 1250 l0 -640 130 0 130 0 2 247 3 248 110 6 c119 6 160 16 245
60 70 36 79 43 123 102 81 106 101 288 45 407 -51 109 -153 181 -283 200 -38
5 -168 10 -287 10 l-218 0 0 -640z m452 392 c67 -29 90 -69 86 -147 -7 -113
-71 -165 -203 -165 l-75 0 0 163 c0 90 3 167 8 171 13 14 136 -1 184 -22z"/>
<path d="M2415 1798 c-2 -7 -13 -37 -24 -67 -11 -30 -19 -56 -17 -58 2 -2 24
21 49 51 47 54 47 58 9 80 -7 4 -14 1 -17 -6z"/>
<path d="M2241 1318 c-61 -165 -73 -203 -65 -213 56 -75 64 -124 28 -172 -27
-37 -81 -73 -109 -73 -13 0 -25 -8 -28 -17 -3 -10 -23 -69 -46 -132 l-41 -113
103 4 c96 3 110 6 181 41 96 48 168 119 210 206 27 58 31 76 30 151 0 72 -4
94 -27 142 -33 68 -89 126 -162 167 -30 17 -57 31 -60 31 -3 0 -9 -10 -14 -22z"/>
</g>
</svg>
